<svg width="1440" height="724" viewBox="0 0 1440 724" fill="none" xmlns="http://www.w3.org/2000/svg">
<rect opacity="0.5" x="-71.5056" y="104.064" width="109.069" height="67.6226" rx="4" transform="rotate(-3.84721 -71.5056 104.064)" fill="white"/>
<rect opacity="0.5" x="194.396" y="481.903" width="109.069" height="67.6226" rx="4" transform="rotate(-3.84721 194.396 481.903)" fill="white"/>
<rect opacity="0.5" x="183.785" y="324.11" width="109.069" height="68.7132" rx="4" transform="rotate(-3.84721 183.785 324.11)" fill="white"/>
<rect x="173.174" y="166.316" width="109.069" height="68.7132" rx="4" transform="rotate(-3.84721 173.174 166.316)" fill="white"/>
<rect opacity="0.5" x="-55.6254" y="340.209" width="109.069" height="68.7132" rx="4" transform="rotate(-3.84721 -55.6254 340.209)" fill="white"/>
<rect opacity="0.5" x="-66.2366" y="182.416" width="109.069" height="68.7132" rx="4" transform="rotate(-3.84721 -66.2366 182.416)" fill="white"/>
<rect opacity="0.35" x="199.665" y="560.255" width="109.069" height="68.7132" rx="4" transform="rotate(-3.84721 199.665 560.255)" fill="white"/>
<rect opacity="0.5" x="-39.7452" y="576.355" width="109.069" height="68.7132" rx="4" transform="rotate(-3.84721 -39.7452 576.355)" fill="white"/>
<rect x="-50.2832" y="419.65" width="109.069" height="67.6226" rx="4" transform="rotate(-3.84721 -50.2832 419.65)" fill="white"/>
<rect opacity="0.5" x="205.007" y="639.696" width="109.069" height="67.6226" rx="4" transform="rotate(-3.84721 205.007 639.696)" fill="white"/>
<rect opacity="0.5" x="298.221" y="237.707" width="109.069" height="67.6226" rx="4" transform="rotate(-3.84721 298.221 237.707)" fill="white"/>
<rect opacity="0.5" x="287.61" y="79.9142" width="109.069" height="67.6226" rx="4" transform="rotate(-3.84721 287.61 79.9142)" fill="white"/>
<rect opacity="0.5" x="58.8106" y="253.807" width="109.069" height="67.6226" rx="4" transform="rotate(-3.84721 58.8106 253.807)" fill="white"/>
<rect opacity="0.5" x="48.1994" y="96.0139" width="109.069" height="67.6226" rx="4" transform="rotate(-3.84721 48.1994 96.0139)" fill="white"/>
<rect opacity="0.5" x="314.101" y="473.853" width="109.069" height="67.6226" rx="4" transform="rotate(-3.84721 314.101 473.853)" fill="white"/>
<rect opacity="0.35" x="303.49" y="316.06" width="109.069" height="68.7132" rx="4" transform="rotate(-3.84721 303.49 316.06)" fill="white"/>
<rect opacity="0.5" x="64.0797" y="332.16" width="109.069" height="68.7132" rx="4" transform="rotate(-3.84721 64.0797 332.16)" fill="white"/>
<rect opacity="0.5" x="308.832" y="395.5" width="109.069" height="67.6226" rx="4" transform="rotate(-3.84721 308.832 395.5)" fill="white"/>
<rect opacity="0.5" x="324.712" y="631.646" width="109.069" height="67.6226" rx="4" transform="rotate(-3.84721 324.712 631.646)" fill="white"/>
<rect x="85.3021" y="647.746" width="109.069" height="67.6226" rx="4" transform="rotate(-3.84721 85.3021 647.746)" fill="white"/>
<rect opacity="0.5" x="407.315" y="71.8643" width="109.069" height="67.6226" rx="4" transform="rotate(-3.84721 407.315 71.8643)" fill="white"/>
<rect opacity="0.5" x="433.806" y="465.803" width="109.069" height="67.6226" rx="4" transform="rotate(-3.84721 433.806 465.803)" fill="white"/>
<rect opacity="0.5" x="423.195" y="308.01" width="109.069" height="68.7132" rx="4" transform="rotate(-3.84721 423.195 308.01)" fill="white"/>
<rect opacity="0.5" x="412.584" y="150.217" width="109.069" height="68.7132" rx="4" transform="rotate(-3.84721 412.584 150.217)" fill="white"/>
<rect opacity="0.5" x="537.631" y="221.608" width="107.978" height="67.6226" rx="4" transform="rotate(-3.84721 537.631 221.608)" fill="white"/>
<rect opacity="0.35" x="527.02" y="63.8144" width="107.978" height="67.6226" rx="4" transform="rotate(-3.84721 527.02 63.8144)" fill="white"/>
<rect opacity="0.5" x="542.9" y="299.96" width="107.978" height="68.7132" rx="4" transform="rotate(-3.84721 542.9 299.96)" fill="white"/>
<rect opacity="0.5" x="558.78" y="536.106" width="107.978" height="68.7132" rx="4" transform="rotate(-3.84721 558.78 536.106)" fill="white"/>
<rect opacity="0.5" x="548.242" y="379.401" width="107.978" height="67.6226" rx="4" transform="rotate(-3.84721 548.242 379.401)" fill="white"/>
<rect opacity="0.5" x="564.123" y="615.546" width="107.978" height="67.6226" rx="4" transform="rotate(-3.84721 564.123 615.546)" fill="white"/>
<rect opacity="0.5" x="656.248" y="213.631" width="109.069" height="67.6226" rx="4" transform="rotate(-3.84721 656.248 213.631)" fill="white"/>
<rect opacity="0.5" x="672.128" y="449.776" width="109.069" height="67.6226" rx="4" transform="rotate(-3.84721 672.128 449.776)" fill="white"/>
<rect opacity="0.35" x="682.74" y="607.57" width="109.069" height="67.6226" rx="4" transform="rotate(-3.84721 682.74 607.57)" fill="white"/>
<rect x="765.342" y="47.7878" width="107.978" height="67.6226" rx="4" transform="rotate(-3.84721 765.342 47.7878)" fill="white"/>
<rect opacity="0.35" x="791.833" y="441.727" width="107.978" height="67.6226" rx="4" transform="rotate(-3.84721 791.833 441.727)" fill="white"/>
<rect opacity="0.5" x="781.222" y="283.933" width="107.978" height="68.7132" rx="4" transform="rotate(-3.84721 781.222 283.933)" fill="white"/>
<rect opacity="0.5" x="770.611" y="126.14" width="107.978" height="68.7132" rx="4" transform="rotate(-3.84721 770.611 126.14)" fill="white"/>
<rect opacity="0.5" x="797.102" y="520.079" width="107.978" height="68.7132" rx="4" transform="rotate(-3.84721 797.102 520.079)" fill="white"/>
<rect opacity="0.5" x="802.445" y="599.52" width="107.978" height="67.6226" rx="4" transform="rotate(-3.84721 802.445 599.52)" fill="white"/>
<rect opacity="0.5" x="894.57" y="197.604" width="109.069" height="67.6226" rx="4" transform="rotate(-3.84721 894.57 197.604)" fill="white"/>
<rect opacity="0.5" x="899.839" y="275.957" width="109.069" height="68.7132" rx="4" transform="rotate(-3.84721 899.839 275.957)" fill="white"/>
<rect opacity="0.5" x="889.228" y="118.164" width="109.069" height="68.7132" rx="4" transform="rotate(-3.84721 889.228 118.164)" fill="white"/>
<rect opacity="0.35" x="915.719" y="512.102" width="109.069" height="68.7132" rx="4" transform="rotate(-3.84721 915.719 512.102)" fill="white"/>
<rect opacity="0.5" x="905.181" y="355.397" width="109.069" height="67.6226" rx="4" transform="rotate(-3.84721 905.181 355.397)" fill="white"/>
<rect opacity="0.5" x="1003.66" y="31.7613" width="109.069" height="67.6226" rx="4" transform="rotate(-3.84721 1003.66 31.7613)" fill="white"/>
<rect x="1253.69" y="173.455" width="109.069" height="67.6226" rx="4" transform="rotate(-3.84721 1253.69 173.455)" fill="white"/>
<rect opacity="0.5" x="1030.16" y="425.7" width="109.069" height="67.6226" rx="4" transform="rotate(-3.84721 1030.16 425.7)" fill="white"/>
<rect opacity="0.5" x="1269.57" y="409.6" width="109.069" height="67.6226" rx="4" transform="rotate(-3.84721 1269.57 409.6)" fill="white"/>
<rect opacity="0.35" x="1008.93" y="110.114" width="109.069" height="68.7132" rx="4" transform="rotate(-3.84721 1008.93 110.114)" fill="white"/>
<rect opacity="0.5" x="1258.95" y="251.807" width="109.069" height="68.7132" rx="4" transform="rotate(-3.84721 1258.95 251.807)" fill="white"/>
<rect opacity="0.5" x="1248.34" y="94.0139" width="109.069" height="68.7132" rx="4" transform="rotate(-3.84721 1248.34 94.0139)" fill="white"/>
<rect opacity="0.5" x="1024.89" y="347.348" width="109.069" height="67.6226" rx="4" transform="rotate(-3.84721 1024.89 347.348)" fill="white"/>
<rect opacity="0.5" x="1040.77" y="583.493" width="109.069" height="67.6226" rx="4" transform="rotate(-3.84721 1040.77 583.493)" fill="white"/>
<rect x="1280.18" y="567.393" width="109.069" height="67.6226" rx="4" transform="rotate(-3.84721 1280.18 567.393)" fill="white"/>
<rect opacity="0.5" x="1133.98" y="181.504" width="109.069" height="67.6226" rx="4" transform="rotate(-3.84721 1133.98 181.504)" fill="white"/>
<rect opacity="0.5" x="1123.37" y="23.7114" width="109.069" height="67.6226" rx="4" transform="rotate(-3.84721 1123.37 23.7114)" fill="white"/>
<rect opacity="0.5" x="1373.39" y="165.405" width="109.069" height="67.6226" rx="4" transform="rotate(-3.84721 1373.39 165.405)" fill="white"/>
<rect opacity="0.35" x="1362.78" y="7.61158" width="109.069" height="67.6226" rx="4" transform="rotate(-3.84721 1362.78 7.61158)" fill="white"/>
<rect opacity="0.5" x="1149.86" y="417.65" width="109.069" height="67.6226" rx="4" transform="rotate(-3.84721 1149.86 417.65)" fill="white"/>
<rect opacity="0.35" x="1139.25" y="259.857" width="109.069" height="68.7132" rx="4" transform="rotate(-3.84721 1139.25 259.857)" fill="white"/>
<rect opacity="0.5" x="1155.13" y="496.003" width="109.069" height="68.7132" rx="4" transform="rotate(-3.84721 1155.13 496.003)" fill="white"/>
<rect opacity="0.5" x="1394.54" y="479.903" width="109.069" height="68.7132" rx="4" transform="rotate(-3.84721 1394.54 479.903)" fill="white"/>
<rect x="1144.59" y="339.298" width="109.069" height="67.6226" rx="4" transform="rotate(-3.84721 1144.59 339.298)" fill="white"/>
<rect opacity="0.35" x="1384" y="323.198" width="109.069" height="67.6226" rx="4" transform="rotate(-3.84721 1384 323.198)" fill="white"/>
<rect opacity="0.5" x="1160.47" y="575.443" width="109.069" height="67.6226" rx="4" transform="rotate(-3.84721 1160.47 575.443)" fill="white"/>
</svg>
