<svg width="18" height="17" viewBox="0 0 18 17" fill="none" xmlns="http://www.w3.org/2000/svg">
<path fill-rule="evenodd" clip-rule="evenodd" d="M8.99917 0C4.02996 0 0 3.90186 0 8.71591C0 12.5659 2.57853 15.8327 6.15489 16.9851C6.60518 17.0648 6.76927 16.7957 6.76927 16.5651C6.76927 16.3581 6.76153 15.8102 6.75711 15.0826C4.25372 15.6096 3.72553 13.9146 3.72553 13.9146C3.31612 12.9077 2.72605 12.6397 2.72605 12.6397C1.90889 12.0988 2.78793 12.11 2.78793 12.11C3.69127 12.1716 4.16642 13.0078 4.16642 13.0078C4.96921 14.34 6.27312 13.9553 6.78584 13.7322C6.86761 13.1688 7.10022 12.7847 7.35713 12.5669C5.35873 12.3471 3.25756 11.5991 3.25756 8.25955C3.25756 7.30829 3.6084 6.53038 4.18411 5.921C4.09129 5.70058 3.78243 4.81459 4.2725 3.61455C4.2725 3.61455 5.02777 3.38022 6.74716 4.50803C7.46487 4.31489 8.23506 4.21805 9.00027 4.21484C9.76494 4.21805 10.5346 4.31489 11.2534 4.50803C12.9717 3.38022 13.7258 3.61455 13.7258 3.61455C14.217 4.81459 13.9082 5.70058 13.8159 5.921C14.3927 6.53038 14.7408 7.30829 14.7408 8.25955C14.7408 11.6077 12.6363 12.3444 10.6318 12.56C10.9545 12.8291 11.2423 13.3609 11.2423 14.1741C11.2423 15.3394 11.2313 16.2794 11.2313 16.5651C11.2313 16.7978 11.3937 17.0691 11.8501 16.984C15.4237 15.8295 18 12.5648 18 8.71591C18 3.90186 13.97 0 8.99917 0Z" fill="#3F3757"/>
</svg>
