<svg width="86" height="20" viewBox="0 0 86 20" fill="none" xmlns="http://www.w3.org/2000/svg">
<path d="M11.0723 14.6257C11.0723 13.8681 10.8009 13.2888 10.2581 12.8877C9.71537 12.4777 8.7384 12.0499 7.32723 11.6043C5.91606 11.1497 4.79888 10.7041 3.9757 10.2674C1.7323 9.07308 0.610603 7.46435 0.610603 5.44118C0.610603 4.38948 0.90912 3.45365 1.50615 2.63369C2.11223 1.80481 2.97612 1.15865 4.09782 0.695187C5.22857 0.231729 6.495 0 7.89713 0C9.3083 0 10.5657 0.254011 11.6693 0.762032C12.7729 1.26114 13.6277 1.9697 14.2338 2.8877C14.849 3.8057 15.1565 4.84848 15.1565 6.01604H11.0858C11.0858 5.12478 10.8009 4.43405 10.231 3.94385C9.66109 3.44474 8.86052 3.19519 7.82928 3.19519C6.83423 3.19519 6.0608 3.40463 5.50899 3.82353C4.95719 4.23351 4.68129 4.77718 4.68129 5.45455C4.68129 6.08734 5.00242 6.61765 5.64468 7.04545C6.29599 7.47326 7.25034 7.87433 8.50773 8.24866C10.8235 8.93494 12.5106 9.7861 13.5689 10.8021C14.6273 11.8182 15.1565 13.0838 15.1565 14.5989C15.1565 16.2834 14.5097 17.607 13.2162 18.5695C11.9226 19.5232 10.1812 20 7.99211 20C6.47239 20 5.08836 19.7282 3.84001 19.1845C2.59167 18.6319 1.63732 17.8788 0.976964 16.9251C0.325655 15.9715 0 14.8663 0 13.6096H4.08425C4.08425 15.7576 5.38687 16.8316 7.99211 16.8316C8.96003 16.8316 9.71537 16.6399 10.2581 16.2567C10.8009 15.8645 11.0723 15.3209 11.0723 14.6257Z" fill="#3F3757"/>
<path d="M21.9953 12.8743V19.7326H17.9246V0.26738H25.6317C27.1153 0.26738 28.4179 0.534759 29.5396 1.06952C30.6703 1.60428 31.5388 2.36631 32.1448 3.35562C32.7509 4.33601 33.054 5.45455 33.054 6.71123C33.054 8.61854 32.3891 10.1248 31.0593 11.2299C29.7386 12.3262 27.9068 12.8743 25.5639 12.8743H21.9953ZM21.9953 9.62567H25.6317C26.7082 9.62567 27.5269 9.37611 28.0877 8.87701C28.6576 8.3779 28.9426 7.66488 28.9426 6.73797C28.9426 5.78431 28.6576 5.01337 28.0877 4.42513C27.5178 3.8369 26.7308 3.53387 25.7267 3.51604H21.9953V9.62567Z" fill="#3F3757"/>
<path d="M44.6011 15.7219H37.4639L36.107 19.7326H31.7785L39.1329 0.26738H42.905L50.3001 19.7326H45.9716L44.6011 15.7219ZM38.563 12.4733H43.5021L41.0189 5.18717L38.563 12.4733Z" fill="#3F3757"/>
<path d="M59.4591 12.607H56.2162V19.7326H52.1455V0.26738H59.4863C61.8201 0.26738 63.6203 0.779857 64.8867 1.80481C66.1532 2.82977 66.7864 4.27808 66.7864 6.14973C66.7864 7.47772 66.4924 8.58734 65.9044 9.47861C65.3254 10.361 64.4435 11.0651 63.2584 11.5909L67.5327 19.5455V19.7326H63.1635L59.4591 12.607ZM56.2162 9.35829H59.4998C60.522 9.35829 61.3136 9.10428 61.8744 8.59626C62.4353 8.07932 62.7157 7.37077 62.7157 6.47059C62.7157 5.55258 62.4488 4.83066 61.9151 4.30481C61.3904 3.77897 60.5808 3.51604 59.4863 3.51604H56.2162V9.35829Z" fill="#3F3757"/>
<path d="M76.0811 11.9251L73.9643 14.1711V19.7326H69.8937V0.26738H73.9643V9.09091L75.7554 6.67112L80.7895 0.26738H85.7965L78.7813 8.91711L86 19.7326H81.1559L76.0811 11.9251Z" fill="#3F3757"/>
</svg>
